<?xml version="1.0" encoding="UTF-8" standalone="no"?>
<!DOCTYPE svg PUBLIC "-//W3C//DTD SVG 1.1//EN"
 "http://www.w3.org/Graphics/SVG/1.1/DTD/svg11.dtd">
<!-- Generated by graphviz version 14.1.4 (20260321.0153)
 -->
<!-- Title: src/main/java/com/notevault/Main.java Pages: 1 -->
<svg width="940pt" height="108pt"
 viewBox="0.00 0.00 940.00 108.00" xmlns="http://www.w3.org/2000/svg" xmlns:xlink="http://www.w3.org/1999/xlink">
<g id="graph0" class="graph" transform="scale(1 1) rotate(0) translate(4 104)">
<title>src/main/java/com/notevault/Main.java</title>
<!-- Node1 -->
<g id="Node000001" class="node">
<title>Node1</title>
<g id="a_Node000001"><a xlink:title="Точка входа приложения NoteVault.">
<polygon fill="#999999" stroke="#666666" points="609.25,-100 470.25,-100 470.25,-68 609.25,-68 609.25,-100"/>
<text xml:space="preserve" text-anchor="start" x="478.25" y="-86.5" font-family="Helvetica,sans-Serif" font-size="10.00">src/main/java/com/notevault</text>
<text xml:space="preserve" text-anchor="middle" x="539.75" y="-74.5" font-family="Helvetica,sans-Serif" font-size="10.00">/Main.java</text>
</a>
</g>
</g>
<!-- Node2 -->
<g id="Node000002" class="node">
<title>Node2</title>
<g id="a_Node000002"><a xlink:title=" ">
<polygon fill="#e0e0e0" stroke="#999999" points="137.5,-32 0,-32 0,0 137.5,0 137.5,-32"/>
<text xml:space="preserve" text-anchor="start" x="8" y="-18.5" font-family="Helvetica,sans-Serif" font-size="10.00">com.formdev.flatlaf.themes.</text>
<text xml:space="preserve" text-anchor="middle" x="68.75" y="-6.5" font-family="Helvetica,sans-Serif" font-size="10.00">FlatMacDarkLaf</text>
</a>
</g>
</g>
<!-- Node1&#45;&gt;Node2 -->
<g id="edge1_Node000001_Node000002" class="edge">
<title>Node1&#45;&gt;Node2</title>
<g id="a_edge1_Node000001_Node000002"><a xlink:title=" ">
<path fill="none" stroke="#63b8ff" d="M469.99,-75.25C393.66,-66.47 267.44,-51.11 148.71,-32.25"/>
<polygon fill="#63b8ff" stroke="#63b8ff" points="149.54,-28.84 139.11,-30.72 148.43,-35.75 149.54,-28.84"/>
</a>
</g>
</g>
<!-- Node3 -->
<g id="Node000003" class="node">
<title>Node3</title>
<g id="a_Node000003"><a xlink:title=" ">
<polygon fill="#e0e0e0" stroke="#999999" points="293.5,-32 156,-32 156,0 293.5,0 293.5,-32"/>
<text xml:space="preserve" text-anchor="start" x="164" y="-18.5" font-family="Helvetica,sans-Serif" font-size="10.00">com.formdev.flatlaf.themes.</text>
<text xml:space="preserve" text-anchor="middle" x="224.75" y="-6.5" font-family="Helvetica,sans-Serif" font-size="10.00">FlatMacLightLaf</text>
</a>
</g>
</g>
<!-- Node1&#45;&gt;Node3 -->
<g id="edge2_Node000001_Node000003" class="edge">
<title>Node1&#45;&gt;Node3</title>
<g id="a_edge2_Node000001_Node000003"><a xlink:title=" ">
<path fill="none" stroke="#63b8ff" d="M469.84,-68.35C421.04,-58.13 355.79,-44.46 304.88,-33.79"/>
<polygon fill="#63b8ff" stroke="#63b8ff" points="305.91,-30.43 295.4,-31.8 304.47,-37.28 305.91,-30.43"/>
</a>
</g>
</g>
<!-- Node4 -->
<g id="Node000004" class="node">
<title>Node4</title>
<g id="a_Node000004"><a xlink:title=" ">
<polygon fill="#e0e0e0" stroke="#999999" points="447.75,-32 311.75,-32 311.75,0 447.75,0 447.75,-32"/>
<text xml:space="preserve" text-anchor="start" x="319.75" y="-18.5" font-family="Helvetica,sans-Serif" font-size="10.00">com.notevault.db.Database</text>
<text xml:space="preserve" text-anchor="middle" x="379.75" y="-6.5" font-family="Helvetica,sans-Serif" font-size="10.00">Manager</text>
</a>
</g>
</g>
<!-- Node1&#45;&gt;Node4 -->
<g id="edge3_Node000001_Node000004" class="edge">
<title>Node1&#45;&gt;Node4</title>
<g id="a_edge3_Node000001_Node000004"><a xlink:title=" ">
<path fill="none" stroke="#63b8ff" d="M502.24,-67.53C480.05,-58.37 451.72,-46.69 427.9,-36.86"/>
<polygon fill="#63b8ff" stroke="#63b8ff" points="429.28,-33.65 418.7,-33.07 426.61,-40.12 429.28,-33.65"/>
</a>
</g>
</g>
<!-- Node5 -->
<g id="Node000005" class="node">
<title>Node5</title>
<g id="a_Node000005"><a xlink:title=" ">
<polygon fill="#e0e0e0" stroke="#999999" points="613.38,-26 466.12,-26 466.12,-6 613.38,-6 613.38,-26"/>
<text xml:space="preserve" text-anchor="middle" x="539.75" y="-12.5" font-family="Helvetica,sans-Serif" font-size="10.00">com.notevault.ui.MainWindow</text>
</a>
</g>
</g>
<!-- Node1&#45;&gt;Node5 -->
<g id="edge4_Node000001_Node000005" class="edge">
<title>Node1&#45;&gt;Node5</title>
<g id="a_edge4_Node000001_Node000005"><a xlink:title=" ">
<path fill="none" stroke="#63b8ff" d="M539.75,-67.69C539.75,-58.8 539.75,-47.46 539.75,-37.77"/>
<polygon fill="#63b8ff" stroke="#63b8ff" points="543.25,-37.83 539.75,-27.83 536.25,-37.83 543.25,-37.83"/>
</a>
</g>
</g>
<!-- Node6 -->
<g id="Node000006" class="node">
<title>Node6</title>
<g id="a_Node000006"><a xlink:title=" ">
<polygon fill="#e0e0e0" stroke="#999999" points="706,-26 631.5,-26 631.5,-6 706,-6 706,-26"/>
<text xml:space="preserve" text-anchor="middle" x="668.75" y="-12.5" font-family="Helvetica,sans-Serif" font-size="10.00">javax.swing.*</text>
</a>
</g>
</g>
<!-- Node1&#45;&gt;Node6 -->
<g id="edge5_Node000001_Node000006" class="edge">
<title>Node1&#45;&gt;Node6</title>
<g id="a_edge5_Node000001_Node000006"><a xlink:title=" ">
<path fill="none" stroke="#63b8ff" d="M569.99,-67.53C591.18,-56.69 619.3,-42.3 640.12,-31.65"/>
<polygon fill="#63b8ff" stroke="#63b8ff" points="641.6,-34.82 648.91,-27.15 638.42,-28.59 641.6,-34.82"/>
</a>
</g>
</g>
<!-- Node7 -->
<g id="Node000007" class="node">
<title>Node7</title>
<g id="a_Node000007"><a xlink:title=" ">
<polygon fill="#e0e0e0" stroke="#999999" points="783.5,-26 724,-26 724,-6 783.5,-6 783.5,-26"/>
<text xml:space="preserve" text-anchor="middle" x="753.75" y="-12.5" font-family="Helvetica,sans-Serif" font-size="10.00">java.awt.*</text>
</a>
</g>
</g>
<!-- Node1&#45;&gt;Node7 -->
<g id="edge6_Node000001_Node000007" class="edge">
<title>Node1&#45;&gt;Node7</title>
<g id="a_edge6_Node000001_Node000007"><a xlink:title=" ">
<path fill="none" stroke="#63b8ff" d="M597.27,-67.54C631.59,-58 675.92,-45.1 714.75,-32 716.34,-31.46 717.96,-30.9 719.59,-30.32"/>
<polygon fill="#63b8ff" stroke="#63b8ff" points="720.76,-33.62 728.93,-26.89 718.34,-27.06 720.76,-33.62"/>
</a>
</g>
</g>
<!-- Node8 -->
<g id="Node000008" class="node">
<title>Node8</title>
<g id="a_Node000008"><a xlink:title=" ">
<polygon fill="#e0e0e0" stroke="#999999" points="931.75,-26 801.75,-26 801.75,-6 931.75,-6 931.75,-26"/>
<text xml:space="preserve" text-anchor="middle" x="866.75" y="-12.5" font-family="Helvetica,sans-Serif" font-size="10.00">java.util.prefs.Preferences</text>
</a>
</g>
</g>
<!-- Node1&#45;&gt;Node8 -->
<g id="edge7_Node000001_Node000008" class="edge">
<title>Node1&#45;&gt;Node8</title>
<g id="a_edge7_Node000001_Node000008"><a xlink:title=" ">
<path fill="none" stroke="#63b8ff" d="M609.56,-68.95C660.36,-58.72 730.82,-44.52 792.75,-32 798.01,-30.94 803.49,-29.83 808.97,-28.72"/>
<polygon fill="#63b8ff" stroke="#63b8ff" points="809.58,-32.17 818.69,-26.75 808.19,-25.3 809.58,-32.17"/>
</a>
</g>
</g>
</g>
</svg>
